<?xml version="1.0" encoding="UTF-8"?>
<svg id="_레이어_2" data-name="레이어_2" xmlns="http://www.w3.org/2000/svg" viewBox="0 0 23.77 28.69">
  <defs>
    <style>
      .cls-1 {
        fill: #231815;
      }
    </style>
  </defs>
  <g id="_레이어_1-2" data-name="레이어_1">
    <path class="cls-1" d="M17.85,1.59c1.82,1.06,3.26,2.5,4.32,4.32s1.59,3.8,1.59,5.94c0,1.62-.31,3.16-.93,4.61s-1.47,2.71-2.57,3.81l-8.39,8.41L3.49,20.25c-1.09-1.08-1.95-2.34-2.57-3.79s-.93-2.97-.93-4.58c0-2.16.53-4.14,1.59-5.96S4.1,2.66,5.92,1.59s3.81-1.59,5.96-1.59,4.14.53,5.96,1.59ZM7.04,3.63c-1.45.83-2.58,1.96-3.41,3.41s-1.24,3.06-1.24,4.84c0,1.33.24,2.55.71,3.68s1.17,2.13,2.07,3.02l6.7,6.73,6.7-6.7c.91-.91,1.6-1.92,2.07-3.05s.71-2.35.71-3.68c0-1.78-.41-3.39-1.24-4.84s-1.96-2.58-3.41-3.41-3.06-1.24-4.84-1.24-3.39.41-4.84,1.24ZM9.7,10.63c.23-.38.54-.69.93-.93s.8-.35,1.25-.35.87.12,1.25.35.69.54.93.93.35.8.35,1.25-.12.87-.35,1.25-.54.69-.93.93-.8.35-1.25.35-.87-.12-1.25-.35-.69-.54-.93-.93-.35-.8-.35-1.25.12-.87.35-1.25Z"/>
  </g>
</svg>