<?xml version="1.0" encoding="UTF-8"?>
<svg id="_레이어_2" data-name="레이어_2" xmlns="http://www.w3.org/2000/svg" viewBox="0 0 356.83 132.05">
  <defs>
    <style>
      .cls-1 {
        fill: #fff;
      }

      .cls-2 {
        fill: #e50012;
      }
    </style>
  </defs>
  <g id="_레이어_1-2" data-name="레이어_1">
    <path class="cls-1" d="M250.59,10.98h15.72v2.06h-13.19v7.53h13.31v2.04h-15.84v-11.63ZM257.14,27.12v-3.71h2.52v3.71h7.96v2.06h-18.47v-2.06h7.98Z"/>
    <path class="cls-1" d="M284.1,10.72h2.5v18.87h-2.5V10.72ZM279.68,29.16c-.91-.61-1.77-1.35-2.58-2.22-.81-.87-1.47-1.83-1.99-2.89-.54,1.07-1.24,2.07-2.08,3-.84.93-1.73,1.7-2.67,2.31l-1.49-1.67c1.56-.98,2.78-2.17,3.66-3.57.88-1.4,1.31-2.97,1.31-4.69v-6.37h-4.03v-2.08h10.61v2.08h-4.03v6.37c0,1.76.4,3.31,1.21,4.62.81,1.32,1.99,2.46,3.56,3.44l-1.49,1.67Z"/>
    <path class="cls-1" d="M308.02,20.2h-2.89v9.39h-2.5V10.72h2.5v7.41h2.89v2.08ZM299.43,29.16c-.91-.61-1.77-1.35-2.58-2.22-.81-.87-1.47-1.83-1.99-2.89-.54,1.07-1.24,2.07-2.08,3-.84.93-1.73,1.7-2.67,2.31l-1.49-1.67c1.56-.98,2.78-2.17,3.66-3.57.87-1.4,1.31-2.97,1.31-4.69v-8.55h2.55v8.55c0,1.76.4,3.31,1.21,4.62.81,1.32,1.99,2.46,3.55,3.44l-1.48,1.67Z"/>
    <path class="cls-1" d="M328.36,12.59h-7.98v-2.02h7.98v2.02ZM319.63,19.67c0,.41.14.72.43.93s.85.32,1.69.32h5.25c.83,0,1.39-.1,1.68-.31.29-.2.44-.52.44-.94s-.15-.73-.44-.94c-.29-.2-.85-.31-1.68-.31h-5.25c-.84,0-1.4.1-1.69.31-.29.21-.43.52-.43.93M321.38,22.93c-1.44,0-2.5-.25-3.19-.76-.69-.51-1.03-1.34-1.03-2.49s.34-1.99,1.03-2.5c.68-.51,1.75-.76,3.19-.76h5.99c1.44,0,2.5.25,3.19.76.68.51,1.03,1.34,1.03,2.5s-.34,1.98-1.03,2.49c-.68.51-1.75.76-3.19.76h-5.99ZM332.63,15.5h-16.53v-2.01h16.53v2.01ZM315.13,25.98v-2.06h18.42v2.06h-7.98v3.91h-2.52v-3.91h-7.92Z"/>
    <path class="cls-1" d="M339.03,20.55h10.61v-3.52h-10.61v3.52ZM339.03,10.96v4.01h10.61v-4.01h2.5v11.65h-15.64v-11.65h2.52ZM343.06,27.12v-3.71h2.52v3.71h7.96v2.06h-18.47v-2.06h7.98Z"/>
    <path class="cls-1" d="M183.4,89.99c4.81,0,8.7,3.9,8.7,8.7v14.05c0,4.81-3.9,8.7-8.7,8.7h-54.38c-4.81,0-8.7-3.9-8.7-8.7v-14.05c0-4.8,3.9-8.7,8.7-8.7h54.38ZM171.83,105.72c0-2.47-2-4.47-4.47-4.47h-23.77c-2.47,0-4.47,2-4.47,4.47s2,4.47,4.47,4.47h23.77c2.47,0,4.47-2,4.47-4.47M166.34,76.55h26.67v10.38h-73.59v-10.38h26.67v-3.13h-12.96c-5.58,0-10.1-4.2-10.1-9.38v-8.98c0-.44.04-.87.11-1.29h-3.55v-9.56h26.51v-3.21h20.25v3.21h26.51v9.56h-3.55c.06.42.11.85.11,1.29v8.98c0,5.18-4.52,9.38-10.1,9.38h-12.96v3.13ZM141.58,58.82c0,2.47,2,4.47,4.47,4.47h20.33c2.47,0,4.47-2,4.47-4.47s-2-4.47-4.47-4.47h-20.33c-2.47,0-4.47,2-4.47,4.47M266.79,89.99c4.81,0,8.7,3.9,8.7,8.7v14.05c0,4.81-3.9,8.7-8.7,8.7h-54.38c-4.81,0-8.7-3.9-8.7-8.7v-14.05c0-4.8,3.9-8.7,8.7-8.7h54.38ZM255.22,105.72c0-2.47-2-4.47-4.47-4.47h-23.78c-2.47,0-4.47,2-4.47,4.47s2,4.47,4.47,4.47h23.78c2.47,0,4.47-2,4.47-4.47M351.23,89.96l3.79-5.68v-40.06h-69.22v10.38h48.95v28.85l-4.53,6.5h-47.05v10.38h10.22v21.11h20.27v-21.11h12.69v21.11h20.27v-21.11h10.22v-10.38h-5.6ZM223.99,79.85l4.61,6.5h18.62v-10.38h-8.57l-4.53-6.5v-25.27h-20.27v25.27l-4.53,6.5h-8.57v10.38h18.62l4.61-6.5ZM253.74,69.88h-12.44v-10.38h12.44v-16.19h20.27v43.05h-20.27v-16.48Z"/>
    <path class="cls-2" d="M92.4,28.65V0H9.61L3.67,72.93h32.49c2.1-3.45,8.03-7.08,13.62-7.08,10.48,0,17.29,6.42,17.29,18.77,0,13.17-7.33,19.76-17.29,19.76-10.66,0-15.55-8.24-16.07-17.12L0,92.69c2.79,23.21,23.75,38.85,49.26,39.35,30.74.49,52.75-15.48,52.75-42.48,0-23.71-12.75-40.01-30.22-43.96-12.58-2.63-23.76-1.65-32.14,3.62l1.75-20.58h51.01Z"/>
    <path class="cls-1" d="M226.75,10.72v10.99h-2.5v-2.85h-4.09v-2.08h4.09v-1.77h-3.68v-2.08h3.68v-2.22h2.5ZM212.98,25.96c0,.49.15.88.45,1.17.3.29.87.44,1.71.44h7.37c.83,0,1.4-.15,1.7-.44.3-.29.46-.68.46-1.17s-.15-.87-.46-1.14c-.31-.27-.87-.41-1.7-.41h-7.37c-.84,0-1.41.14-1.71.41-.3.27-.45.65-.45,1.14M214.73,29.59c-1.44,0-2.5-.3-3.19-.89-.69-.59-1.03-1.5-1.03-2.74s.34-2.14,1.03-2.71c.68-.57,1.75-.86,3.19-.86h8.18c1.44,0,2.5.28,3.18.86.68.57,1.03,1.47,1.03,2.71s-.34,2.15-1.03,2.74c-.68.59-1.75.89-3.18.89h-8.18ZM219.46,12.24c0,1.1-.21,2.12-.62,3.07-.42.95-1,1.82-1.76,2.6-.76.78-1.68,1.47-2.76,2.08-1.08.6-2.28,1.12-3.59,1.54l-1.18-1.89c.91-.27,1.79-.62,2.63-1.06.85-.43,1.6-.93,2.26-1.49.66-.56,1.2-1.19,1.62-1.87.42-.68.67-1.42.73-2.19h-6.54v-2.06h9.2v1.28Z"/>
    <path class="cls-1" d="M244.2,10.72h2.5v18.87h-2.5V10.72ZM239.37,15.52c0,1.78-.21,3.36-.61,4.76-.41,1.4-.99,2.65-1.74,3.76-.75,1.1-1.66,2.08-2.74,2.92-1.07.84-2.28,1.59-3.62,2.24l-1.24-1.81c1.04-.5,2.02-1.1,2.92-1.8.9-.7,1.68-1.51,2.34-2.43.66-.92,1.18-1.97,1.56-3.14.38-1.17.57-2.48.57-3.93v-3.06h-6.76v-2.06h9.33v4.54Z"/>
    <path class="cls-1" d="M250.59,10.98h15.72v2.06h-13.19v7.53h13.31v2.04h-15.84v-11.63ZM257.14,27.12v-3.71h2.52v3.71h7.96v2.06h-18.47v-2.06h7.98Z"/>
    <path class="cls-1" d="M284.1,10.72h2.5v18.87h-2.5V10.72ZM279.68,29.16c-.91-.61-1.77-1.35-2.58-2.22-.81-.87-1.47-1.83-1.99-2.89-.54,1.07-1.24,2.07-2.08,3-.84.93-1.73,1.7-2.67,2.31l-1.49-1.67c1.56-.98,2.78-2.17,3.66-3.57.88-1.4,1.31-2.97,1.31-4.69v-6.37h-4.03v-2.08h10.61v2.08h-4.03v6.37c0,1.76.4,3.31,1.21,4.62.81,1.32,1.99,2.46,3.56,3.44l-1.49,1.67Z"/>
    <path class="cls-1" d="M308.02,20.2h-2.89v9.39h-2.5V10.72h2.5v7.41h2.89v2.08ZM299.43,29.16c-.91-.61-1.77-1.35-2.58-2.22-.81-.87-1.47-1.83-1.99-2.89-.54,1.07-1.24,2.07-2.08,3-.84.93-1.73,1.7-2.67,2.31l-1.49-1.67c1.56-.98,2.78-2.17,3.66-3.57.87-1.4,1.31-2.97,1.31-4.69v-8.55h2.55v8.55c0,1.76.4,3.31,1.21,4.62.81,1.32,1.99,2.46,3.55,3.44l-1.48,1.67Z"/>
    <path class="cls-1" d="M328.36,12.59h-7.98v-2.02h7.98v2.02ZM319.63,19.67c0,.41.14.72.43.93s.85.32,1.69.32h5.25c.83,0,1.39-.1,1.68-.31.29-.2.44-.52.44-.94s-.15-.73-.44-.94c-.29-.2-.85-.31-1.68-.31h-5.25c-.84,0-1.4.1-1.69.31-.29.21-.43.52-.43.93M321.38,22.93c-1.44,0-2.5-.25-3.19-.76-.69-.51-1.03-1.34-1.03-2.49s.34-1.99,1.03-2.5c.68-.51,1.75-.76,3.19-.76h5.99c1.44,0,2.5.25,3.19.76.68.51,1.03,1.34,1.03,2.5s-.34,1.98-1.03,2.49c-.68.51-1.75.76-3.19.76h-5.99ZM332.63,15.5h-16.53v-2.01h16.53v2.01ZM315.13,25.98v-2.06h18.42v2.06h-7.98v3.91h-2.52v-3.91h-7.92Z"/>
    <path class="cls-1" d="M339.03,20.55h10.61v-3.52h-10.61v3.52ZM339.03,10.96v4.01h10.61v-4.01h2.5v11.65h-15.64v-11.65h2.52ZM343.06,27.12v-3.71h2.52v3.71h7.96v2.06h-18.47v-2.06h7.98Z"/>
    <path class="cls-2" d="M132.86,19.54l4.84-2.99-5.29-8.19h4.8V3.14h-18.16v5.23h4.8l-5.29,8.19,4.84,3.14,4.74-6.92,4.74,6.77ZM204.71,3.14v5.23h-3.87v13.97c0,4.85-4.01,8.8-8.95,8.8s-8.95-3.95-8.95-8.8c0-1.02.18-2,.51-2.9h-6.37V3.14h14.58v5.23h-8.4v5.54h11.41V3.14h10.04ZM191.9,25.06c1.53,0,2.77-1.22,2.77-2.73s-1.24-2.73-2.77-2.73-2.77,1.22-2.77,2.73,1.24,2.73,2.77,2.73M164.75,24.49h8.86v5.23h-23.9v-5.23h8.86v-5.06h-8.62V3.14h6.18v3.02h11.06v-3.02h6.18v16.29h-8.62v5.06ZM156.13,14.05h11.06v-2.85h-11.06v2.85ZM139.88,3.14h6.18v26.58h-21.01v-9.4h6.18v4.18h8.65V3.14Z"/>
  </g>
</svg>